# xmcd CD database file
#
# Track frame offsets:
#	150
#	17238
#	31412
#	46261
#	58238
#	77724
#	94691
#	105934
#	120600
#	137201
#	161594
#	176247
#	206287
#	222472
#	240354
#	255305
#	273717
#
# Disc length: 3654 seconds
#
# Revision: 0
# Processed by: cddbd v1.4PL0 Copyright (c) Steve Scherf et al.
# Submitted via: CDex 1.40Release
#
DISCID=ea0e4411
DTITLE=С. С. Волгин - Агент сжатия
DYEAR=2003
DGENRE=Blues
TTITLE0=У кого что
TTITLE1=Боже, помилуй корову
TTITLE2=Кубы одиночества
TTITLE3=Урчащее пузо блюз
TTITLE4=Вой, муха
TTITLE5=Зомби в универмаге
TTITLE6=Два японца
TTITLE7=Жидкая баба
TTITLE8=Гадость такая
TTITLE9=Андижан
TTITLE10=Улетающие люди летят
TTITLE11=Паук
TTITLE12=Свин
TTITLE13=Последний тралик
TTITLE14=Хризантемы
TTITLE15=Дребедень
TTITLE16=ГЁГИНГЛ
EXTD=YEAR: 2003 ID3G: 0
EXTT0=
EXTT1=
EXTT2=
EXTT3=
EXTT4=
EXTT5=
EXTT6=
EXTT7=
EXTT8=
EXTT9=
EXTT10=
EXTT11=
EXTT12=
EXTT13=
EXTT14=
EXTT15=
EXTT16=
PLAYORDER=
